<svg width="512" height="512" viewBox="0 0 512 512" fill="none" xmlns="http://www.w3.org/2000/svg">
  <rect width="512" height="512" rx="112" fill="#16A34A"/>
  <path d="M106 284C106 215.517 161.517 160 230 160H296C364.483 160 420 215.517 420 284V332C420 363.928 394.928 389 363 389H163C131.072 389 106 363.928 106 332V284Z" fill="white"/>
  <circle cx="194" cy="329" r="32" fill="#14532D"/>
  <circle cx="332" cy="329" r="32" fill="#14532D"/>
  <path d="M160 260C160 245.641 171.641 234 186 234H262C276.359 234 288 245.641 288 260V271H160V260Z" fill="#DCFCE7"/>
  <path d="M300 209H350C364.359 209 376 220.641 376 235V271H300V209Z" fill="#DCFCE7"/>
  <path d="M247 110C251.444 112.739 255.179 116.5 257.887 120.963C260.594 125.427 262.195 130.472 262.549 135.682C262.904 140.892 262.001 146.109 259.916 150.901C257.832 155.692 254.625 159.913 250.562 163.216C246.5 166.519 241.71 168.805 236.594 169.879C231.478 170.953 226.183 170.783 221.145 169.384C216.106 167.985 211.476 165.399 207.649 161.839C203.821 158.279 200.902 153.851 199.143 148.931" stroke="white" stroke-width="24" stroke-linecap="round"/>
</svg>
